<svg width="679" height="1029" viewBox="0 0 679 1029" fill="none" xmlns="http://www.w3.org/2000/svg">
<path fill-rule="evenodd" clip-rule="evenodd" d="M402.749 158.076C402.749 172.412 393.531 184.033 382.16 184.033C370.791 184.033 361.573 172.412 361.573 158.076C361.573 143.74 370.791 132.119 382.16 132.119C393.531 132.119 402.749 143.74 402.749 158.076" fill="#1F1200"/>
<path d="M354.028 260.906L353.167 231.093C353.167 231.093 389.314 233.977 397.047 229.951C397.047 229.951 406.498 181.149 395.226 154.124L394.998 153.072L318.716 144.129L314.44 188C311.87 180.404 290.664 171.791 285.12 182.668C273.107 206.239 316.061 222.109 316.061 222.109L311.699 261.264" fill="#F1B884"/>
<path opacity="0.398926" fill-rule="evenodd" clip-rule="evenodd" d="M353.167 231.092L328.792 225.854L353.05 242.277L353.167 231.092Z" fill="black"/>
<path fill-rule="evenodd" clip-rule="evenodd" d="M372.652 187.443L381.074 208.081L370.98 208.21L372.652 187.443Z" fill="#D09F73"/>
<path fill-rule="evenodd" clip-rule="evenodd" d="M363.67 188.237C364.172 191.017 362.33 193.677 359.557 194.179C356.784 194.682 354.129 192.836 353.628 190.058C353.126 187.278 354.967 184.618 357.741 184.115C360.514 183.613 363.168 185.458 363.67 188.237" fill="#0D0B6D"/>
<path fill-rule="evenodd" clip-rule="evenodd" d="M391.974 188.237C392.476 191.017 390.634 193.677 387.861 194.179C385.088 194.682 382.433 192.836 381.932 190.058C381.43 187.278 383.271 184.618 386.045 184.115C388.818 183.613 391.472 185.458 391.974 188.237" fill="#0D0B6D"/>
<path d="M320.104 195.488C312.872 183.082 302.407 179.298 297.71 178.189C295.837 172.762 294.409 166.469 293.406 159.775C290.715 141.861 303.711 125.516 314.208 120.823C324.834 116.073 343.156 109.491 369.975 118.426C388.005 124.437 399.53 110.046 410.14 116.192C428.27 126.698 411.406 172.69 365.435 161.006C332.551 152.648 331.706 154.745 331.424 160.82C330.512 180.458 327.457 192.01 320.104 195.488Z" fill="#331F00"/>
<path fill-rule="evenodd" clip-rule="evenodd" d="M358.629 208.977C358.629 208.977 361.87 214.879 368.875 214.739Z" fill="white"/>
<path d="M358.629 208.977C358.629 208.977 361.87 214.879 368.875 214.739" stroke="#252535" stroke-width="4"/>
<path fill-rule="evenodd" clip-rule="evenodd" d="M361.311 177.064C361.311 177.064 354.841 175.202 350.002 180.268Z" fill="white"/>
<path d="M361.311 177.064C361.311 177.064 354.841 175.202 350.002 180.268" stroke="#252535" stroke-width="4"/>
<path fill-rule="evenodd" clip-rule="evenodd" d="M384 177.064C384 177.064 390.47 175.202 395.309 180.268Z" fill="white"/>
<path d="M384 178.064C384 178.064 390.471 176.202 395.31 181.268" stroke="#252535" stroke-width="4"/>
<path fill-rule="evenodd" clip-rule="evenodd" d="M383.744 788.272L384.027 771.132L352.566 760L348 809H435C424.5 792 383.744 788.272 383.744 788.272ZM244.237 788.122L244.521 768.084L223.983 780.294L207.455 787.014L202.001 809H276.703C267.311 790.321 244.237 788.122 244.237 788.122Z" fill="#0D0B6D"/>
<path fill-rule="evenodd" clip-rule="evenodd" d="M244.521 768.952L213.018 762.186L207.455 787.479L244.237 788.564L244.521 768.952ZM384.043 769.765L352.54 763L350 786.142L383.76 787.226L384.043 769.765Z" fill="#F1B884"/>
<path d="M398.682 780.903H339.198C339.198 780.903 339.312 760.105 339.198 756.312L332.51 513.576L260.235 758.639C259.217 762.086 254 782 254 782L198 780.5C198 780.5 202.827 758.858 203.55 755.327L270.09 430.527L330.221 430.527L330.218 430.403H403.047L398.682 755.858C398.621 760.138 398.682 780.903 398.682 780.903Z" fill="#4C4B54"/>
<path opacity="0.197824" fill-rule="evenodd" clip-rule="evenodd" d="M332.14 517.423L344.892 477.022L335.298 599.505L332.14 517.423Z" fill="black"/>
<path fill-rule="evenodd" clip-rule="evenodd" d="M503.083 274.682L502.583 266.053C502.583 266.053 502.593 260.048 503.373 253.566C503.568 251.94 503.998 250.24 504.457 248.423C505.828 243.001 507.458 236.549 503.893 227.977C499.133 216.545 510.513 224.438 513.033 229.876C514.006 231.978 514.29 235.155 514.571 238.306C514.896 241.951 515.219 245.561 516.603 247.432C518.783 246.249 520.233 244.709 520.233 244.709L544.763 213.075C545.553 212.011 547.013 211.693 548.183 212.32L549.503 213.035C550.893 213.791 551.333 215.561 550.443 216.853C548.741 219.336 545.771 223.524 542.666 227.902L542.665 227.902L542.663 227.905C537.03 235.849 530.955 244.415 531.213 244.55L531.863 245.335L560.673 215.133C561.573 214.129 563.083 213.95 564.193 214.716L565.923 215.908C567.183 216.773 567.453 218.503 566.513 219.696C563.441 223.64 555.836 232.182 549.504 239.293L549.504 239.293C544.027 245.446 539.502 250.528 539.693 250.634L540.553 251.459L567.373 227.908C568.323 226.854 569.943 226.735 571.043 227.619L572.353 228.683C573.503 229.608 573.673 231.288 572.733 232.421L547.403 256.101L548.133 257.245L570.123 241.885C571.133 240.991 572.653 240.991 573.673 241.875L574.283 242.422C575.363 243.376 575.483 245.017 574.543 246.12C573.046 247.881 570.083 250.194 566.551 252.952C562.487 256.126 557.668 259.888 553.463 264.074C551.146 266.381 549.278 268.641 547.386 270.932C544.295 274.673 541.137 278.494 535.853 282.724C532.699 285.259 529.844 286.733 527.127 288.135C526.743 288.334 526.362 288.531 525.983 288.729L503.083 274.682ZM305.373 254.884C305.373 254.884 322.32 254.851 334.551 254.81C346.781 254.768 362.161 259.909 362.161 259.909C362.161 259.909 370.164 277.879 342.364 276.251C314.564 274.622 305.373 254.884 305.373 254.884ZM212.68 327.602C212.68 327.602 185.551 368.304 186.166 390.939C186.892 417.628 272.237 483.205 272.237 483.205L294.355 465.197L240.627 390.328L260.166 348.727L212.68 327.602Z" fill="#F1B884"/>
<path d="M287.928 432.562L301.14 450.282L261.345 484.949C261.345 484.949 188.318 431.455 186.063 389.512C184.627 362.798 208.012 324.664 208.012 324.664C208.012 324.664 237.364 277.779 271.294 261.957C278.257 258.709 295.139 256.001 305.373 254.883C308.51 254.541 306.634 255.762 307.711 257.83C308.837 259.99 312.261 263.19 314.63 265.583C319.562 270.562 329.28 274.332 334.5 275.104C338.478 275.692 346.166 276.604 349.865 276.108C353.563 275.611 357.584 273.943 358.659 272.951C359.733 271.96 361.332 270.72 362.161 268.809C362.99 266.899 362.948 267.446 362.948 265.683C362.948 263.921 362.857 264.181 362.685 263.343C362.512 262.504 362.512 262 362.41 261.566C361.96 259.648 362.161 259.909 362.161 259.909C382.191 265.955 392.336 268.192 399.633 276.988L455.397 316.099L493.551 266.342L542.781 299.377C542.781 299.377 499.192 380.539 467.602 389.512C442.155 396.74 416.376 374.261 407.312 365.245L418.081 419.882C419.807 429.315 411.542 432.885 404.178 432.551L287.928 432.562Z" fill="#4C4981"/>
<path opacity="0.201242" fill-rule="evenodd" clip-rule="evenodd" d="M407.143 365.278L400.478 338.954L418.474 374.929L407.143 365.278Z" fill="black"/>
<path opacity="0.200591" d="M282.986 426.218L251.909 382.17L289.448 325.275" stroke="black" stroke-width="5"/>
</svg>
