<svg width="919" height="560" viewBox="0 0 919 560" fill="none" xmlns="http://www.w3.org/2000/svg">
<g clip-path="url(#clip0)">
<path d="M455.902 540.147C306.819 540.147 185.963 419.231 185.963 270.074C185.963 120.916 306.819 0 455.902 0C604.985 0 725.84 120.916 725.84 270.074C725.84 419.231 604.985 540.147 455.902 540.147Z" fill="#F2F2F2"/>
<path d="M146.48 62.9059L162.987 104.495C159.793 118.961 156.669 135.275 154.161 152.647L124.77 91.1084L124.289 91.8504C131.022 80.2075 138.679 70.1624 146.987 62.2207L146.48 62.9059Z" fill="#00897B"/>
<path d="M163.552 101.958L147.561 61.6726C156.937 52.8523 167.13 46.7109 177.764 44.0003C178.317 43.8593 178.868 43.736 179.419 43.6147C178.136 47.4326 170.755 69.8912 163.552 101.958Z" fill="#00897B"/>
<path d="M96.0099 191.177L95.6387 192.099C96.0328 185.82 96.652 179.608 97.4962 173.463L148.59 237.351L148.777 236.936C148.887 240.707 149.053 244.426 149.274 248.094L96.0099 191.177Z" fill="#00897B"/>
<path d="M105.336 137.435L104.906 138.282C109.391 122.383 115.741 107.07 123.826 92.6655L153.777 155.376C151.502 171.669 149.979 187.391 149.208 202.542L105.336 137.435Z" fill="#00897B"/>
<path d="M247.364 96.7832C251.171 107.917 253.843 119.407 255.341 131.078L151.07 192.026C152.002 178.897 153.414 166.336 155.052 154.729L247.476 97.77L247.364 96.7832Z" fill="#00897B"/>
<path d="M256.717 144.696L256.622 143.704L150.375 203.809C150.525 200.584 150.706 197.387 150.918 194.219L255.574 133.046L255.472 132.055C256.003 136.168 256.418 140.382 256.717 144.696Z" fill="#00897B"/>
<path d="M98.06 171.391L97.6606 172.281C99.2326 161.152 101.553 150.142 104.607 139.325L149.072 205.313C148.616 215.419 148.502 225.23 148.728 234.747L98.06 171.391Z" fill="#00897B"/>
<path d="M154.537 289.701C158.776 310.748 165.278 329.517 173.986 345.793C161.809 335.405 113.468 291.417 99.1602 236.464L154.537 289.701Z" fill="#00897B"/>
<path d="M253.873 192.43C251.596 202.984 248.614 213.374 244.947 223.529L244.782 222.453L155.492 287.431C153.23 275.63 151.677 263.705 150.843 251.718L253.873 192.43Z" fill="#00897B"/>
<path d="M164.703 102.237C172.505 67.5448 180.5 44.2268 180.616 43.8924L180.115 43.4634C196.452 40.1041 211.481 45.4387 223.852 57.4194L164.703 102.237Z" fill="#00897B"/>
<path d="M149.462 250.931C149.539 252.068 149.61 253.21 149.698 254.336C150.52 265.142 151.929 275.895 153.92 286.548L99.0678 233.816L98.7264 234.729C96.288 225.034 95.0874 215.068 95.153 205.07C95.1965 201.142 95.333 197.231 95.5625 193.336L149.462 250.931Z" fill="#00897B"/>
<path d="M155.384 152.414C157.875 135.241 160.968 119.121 164.127 104.824L224.633 58.977L224.475 58.022C233.713 67.2005 241.43 80.1248 247.056 95.9189L155.384 152.414Z" fill="#00897B"/>
<path d="M155.86 289.303L244.496 224.801C222.528 285.701 179.687 344.207 176.943 347.921C166.792 330.091 160.067 310.097 155.86 289.303Z" fill="#00897B"/>
<path d="M150.749 249.67L150.698 249.615C149.775 235.082 149.636 220.511 150.28 205.963L256.79 145.71C257.169 151.558 257.328 157.57 257.266 163.747C257.101 172.582 256.131 181.384 254.369 190.042L150.749 249.67Z" fill="#00897B"/>
<path d="M0.778202 294.372L40.0048 315.869C46.7671 329.049 54.7604 343.608 63.9037 358.588L2.03697 329.947L2.13878 330.826C-0.0975609 317.562 -0.604221 304.939 0.732031 293.521L0.778202 294.372Z" fill="#00897B"/>
<path d="M38.8227 313.555L0.824769 292.732C2.42311 279.956 6.35869 268.721 12.8208 259.847C13.157 259.386 13.5026 258.939 13.8492 258.495C15.2949 262.254 23.9277 284.261 38.8227 313.555Z" fill="#00897B"/>
<path d="M43.6789 425.371L43.981 426.318C40.2816 421.231 36.7983 416.051 33.5311 410.78L113.612 427.381L113.491 426.943C115.979 429.776 118.478 432.534 120.986 435.219L43.6789 425.371Z" fill="#00897B"/>
<path d="M16.6016 378.028L16.8105 378.956C10.1286 363.848 5.25852 348.002 2.30212 331.749L65.3481 360.935C73.9819 374.935 82.8315 388.016 91.897 400.177L16.6016 378.028Z" fill="#00897B"/>
<path d="M100.075 256.086C110.104 262.233 119.487 269.377 128.081 277.41L86.6267 390.89C78.9755 380.183 72.0557 369.608 65.9172 359.623L100.79 256.775L100.075 256.086Z" fill="#00897B"/>
<path d="M137.823 287.02L137.117 286.316L93.6029 400.408C91.663 397.829 89.7646 395.251 87.9077 392.675L129.515 278.777L128.805 278.078C131.836 280.907 134.842 283.887 137.823 287.02Z" fill="#00897B"/>
<path d="M32.6448 408.824L32.904 409.764C27.0201 400.19 21.7886 390.229 17.2452 379.949L93.5589 402.397C99.6499 410.472 105.816 418.102 112.058 425.287L32.6448 408.824Z" fill="#00897B"/>
<path d="M151.565 463.905C168.248 477.411 185.22 487.718 202.303 494.696C186.302 494.466 121.028 491.435 74.9761 458.241L151.565 463.905Z" fill="#00897B"/>
<path d="M166.062 325.598C171.037 335.181 175.363 345.086 179.013 355.247L178.2 354.524L150.853 461.548C141.588 453.903 132.79 445.708 124.505 437.009L166.062 325.598Z" fill="#00897B"/>
<path d="M39.8874 313.036C23.7801 281.337 15.0728 258.276 14.9487 257.945L14.2897 257.934C24.7301 244.922 39.7061 239.44 56.8722 240.772L39.8874 313.036Z" fill="#00897B"/>
<path d="M122.94 437.284C123.724 438.111 124.507 438.944 125.293 439.756C132.815 447.554 140.755 454.937 149.079 461.871L73.2165 456.26L73.5358 457.182C65.4768 451.27 58.199 444.361 51.8761 436.619C49.4054 433.566 47.017 430.466 44.7109 427.32L122.94 437.284Z" fill="#00897B"/>
<path d="M64.697 357.628C55.6678 342.812 47.7736 328.422 41.0921 315.395L58.4661 241.473L57.7359 240.838C70.702 242.013 84.8847 247.042 99.2861 255.617L64.697 357.628Z" fill="#00897B"/>
<path d="M152.33 462.755L179.477 356.514C201.381 417.437 205.682 489.836 205.937 494.448C186.752 487.194 168.826 476.085 152.33 462.755Z" fill="#00897B"/>
<path d="M123.127 435.491L123.053 435.482C113.078 424.877 103.681 413.743 94.9036 402.128L138.525 287.754C142.545 292.016 146.5 296.545 150.39 301.343C155.896 308.252 160.76 315.65 164.922 323.444L123.127 435.491Z" fill="#00897B"/>
<path d="M264.25 227.242L267.101 271.9C259.594 284.67 251.582 299.218 243.831 314.964L234.891 247.35L234.204 247.907C244.204 238.916 254.589 231.731 264.945 226.748L264.25 227.242Z" fill="#00897B"/>
<path d="M268.422 269.662L265.66 226.403C277.302 220.915 288.893 218.226 299.844 218.937C300.413 218.974 300.975 219.027 301.536 219.082C299.136 222.316 285.179 241.392 268.422 269.662Z" fill="#00897B"/>
<path d="M176.624 333.623L175.986 334.386C178.301 328.536 180.808 322.82 183.51 317.237L212.364 393.797L212.669 393.461C211.61 397.08 210.618 400.668 209.695 404.225L176.624 333.623Z" fill="#00897B"/>
<path d="M202.096 285.398L201.425 286.071C210.602 272.337 221.373 259.738 233.512 248.539L242.623 317.441C235.425 332.232 229.119 346.713 223.706 360.884L202.096 285.398Z" fill="#00897B"/>
<path d="M349.728 290.659C349.909 302.425 348.901 314.179 346.719 325.741L228.725 351.458C233.668 339.261 238.892 327.752 244.035 317.22L349.53 291.632L349.728 290.659Z" fill="#00897B"/>
<path d="M343.821 339.119L344.038 338.145L224.424 362.45C225.563 359.429 226.723 356.445 227.903 353.497L346.333 327.685L346.542 326.711C345.776 330.787 344.869 334.923 343.821 339.119Z" fill="#00897B"/>
<path d="M184.686 315.441L184.031 316.163C188.965 306.065 194.573 296.312 200.819 286.97L222.721 363.477C219.165 372.947 216.024 382.242 213.3 391.364L184.686 315.441Z" fill="#00897B"/>
<path d="M201.847 445.423C199.376 466.751 199.76 486.611 203.014 504.783C194.643 491.138 162.259 434.354 165.628 377.668L201.847 445.423Z" fill="#00897B"/>
<path d="M326.37 383.635C320.943 392.968 314.897 401.927 308.273 410.451L308.448 409.377L203.456 443.559C204.95 431.637 207.158 419.815 210.067 408.158L326.37 383.635Z" fill="#00897B"/>
<path d="M269.43 270.283C287.568 239.702 302.376 219.999 302.589 219.717L302.246 219.154C318.82 221.011 331.465 230.732 339.529 245.952L269.43 270.283Z" fill="#00897B"/>
<path d="M208.997 406.982C208.719 408.087 208.435 409.195 208.17 410.294C205.613 420.825 203.631 431.487 202.234 442.234L166.359 375.121L165.752 375.884C166.428 365.909 168.365 356.06 171.516 346.572C172.771 342.85 174.11 339.172 175.531 335.539L208.997 406.982Z" fill="#00897B"/>
<path d="M245.066 315.12C252.74 299.559 260.662 285.184 268.083 272.564L339.79 247.674L339.936 246.717C345.885 258.303 349.231 272.981 349.702 289.741L245.066 315.12Z" fill="#00897B"/>
<path d="M203.227 445.453L307.451 411.521C267.744 462.645 208.926 505.038 205.169 507.721C201.023 487.625 200.804 466.53 203.227 445.453Z" fill="#00897B"/>
<path d="M210.611 406.181L210.579 406.113C214.192 392.007 218.561 378.105 223.668 364.469L343.577 340.105C342.131 345.784 340.425 351.551 338.457 357.406C335.571 365.758 331.93 373.828 327.578 381.518L210.611 406.181Z" fill="#00897B"/>
<path d="M319.464 490.972C237.857 490.009 156.253 490.562 74.6514 492.629C67.6315 492.807 60.3472 493.036 54.148 494.896C47.9489 496.756 43.1781 500.746 44.8742 504.579C76.7287 505.522 108.616 505.813 140.537 505.453C147.488 508.86 155.12 513.991 150.848 518.585C147.891 521.764 140.594 522.71 134.213 522.718C122.655 522.731 111.05 520.833 99.6634 521.947C88.2765 523.061 76.9144 529.053 80.2501 535.273C82.7831 539.997 92.3931 542.335 101.139 542.753C109.884 543.171 118.839 542.302 127.388 543.421C135.511 544.484 142.549 547.246 150.152 549.174C162.145 552.216 175.44 553.156 188.52 553.955C288.956 560.094 390.225 560.046 491.254 559.99C532.154 559.967 573.61 559.905 613.106 553.932C635.619 550.526 657.193 545.239 679.99 542.495C707.222 539.217 735.366 539.662 763.213 539.76C812.101 539.933 860.948 538.99 909.753 536.933C913.385 536.779 917.843 536.261 918.823 534.289C919.967 531.988 915.325 530.192 911.401 529.274C889.166 524.124 866.557 520.75 843.788 519.183C832.256 518.372 820.374 517.959 809.768 515.288C799.162 512.618 789.896 507.017 789.996 500.485C790.026 498.492 790.867 496.36 789.204 494.6C786.997 492.263 781.566 491.727 776.881 491.472C724.939 488.647 672.713 487.468 620.535 487.942C602.181 488.108 583.751 488.477 565.527 487.24C550.594 486.227 535.969 484.146 521.252 482.399C501.498 480.054 415.531 467.907 402.99 477.763C393.603 485.142 412.984 486.734 387.806 489.745C365.883 492.366 341.7 491.235 319.464 490.972Z" fill="#F2F2F2"/>
<path d="M364.575 234.495C337.794 234.495 316.083 212.774 316.083 185.979C316.083 159.184 337.794 137.463 364.575 137.463C391.357 137.463 413.067 159.184 413.067 185.979C413.067 212.774 391.357 234.495 364.575 234.495Z" fill="#2F2E41"/>
<path d="M312.042 170.615C285.261 170.615 263.55 148.894 263.55 122.099C263.55 95.3045 285.261 73.583 312.042 73.583C338.824 73.583 360.534 95.3045 360.534 122.099C360.534 148.894 338.824 170.615 312.042 170.615Z" fill="#2F2E41"/>
<path d="M270.215 162.274C276.492 166.812 283.763 169.781 291.422 170.931C299.08 172.082 306.902 171.381 314.234 168.886C321.566 166.392 328.194 162.177 333.564 156.595C338.934 151.012 342.89 144.224 345.1 136.798C344.263 143.453 342.057 149.862 338.62 155.62C335.183 161.379 330.59 166.362 325.132 170.255C319.673 174.148 313.466 176.866 306.904 178.238C300.343 179.61 293.568 179.606 287.007 178.226C280.447 176.846 274.244 174.121 268.79 170.221C263.336 166.322 258.749 161.333 255.319 155.571C251.888 149.808 249.69 143.397 248.861 136.741C248.033 130.086 248.593 123.331 250.505 116.902C249.419 125.539 250.676 134.308 254.144 142.291C257.612 150.274 263.163 157.176 270.215 162.274V162.274Z" fill="#2F2E41"/>
<path d="M377.102 244.603C355.231 244.603 337.501 226.863 337.501 204.981C337.501 183.099 355.231 165.359 377.102 165.359C398.974 165.359 416.704 183.099 416.704 204.981C416.704 226.863 398.974 244.603 377.102 244.603Z" fill="#A0616A"/>
<path d="M390.842 237.325C390.842 237.325 374.678 261.583 377.102 272.095C377.102 272.095 387.609 276.947 387.609 278.564C387.609 280.181 397.307 295.545 397.307 295.545L408.622 310.908L413.471 331.123H390.034L364.171 310.908L339.117 283.416C339.117 283.416 322.145 275.33 313.255 281.799L308.405 285.842C308.405 285.842 325.378 263.201 333.46 258.349C333.46 258.349 348.007 240.56 346.391 222.771L390.842 237.325Z" fill="#A0616A"/>
<path d="M384.376 271.287C384.376 271.287 400.54 280.181 407.006 297.162C413.471 314.143 442.566 370.745 442.566 370.745C442.566 370.745 444.991 407.132 443.375 408.749C441.758 410.366 423.17 392.577 419.937 387.725C416.704 382.874 403.773 324.654 403.773 324.654L382.76 290.693L378.719 271.287H384.376Z" fill="#A0616A"/>
<path d="M435.293 373.17L442.566 370.745C442.566 370.745 487.017 343.252 489.442 331.123C491.867 318.994 527.427 278.564 528.236 300.396C529.044 322.228 502.373 346.487 502.373 346.487C502.373 346.487 444.183 428.155 440.95 404.706L435.293 373.17Z" fill="#A0616A"/>
<path d="M361.747 317.377C361.747 317.377 360.938 340.018 329.419 348.104C329.419 348.104 297.091 391.768 293.858 411.175C290.625 430.581 205.764 530.04 205.764 530.04C205.764 530.04 127.369 539.743 127.369 530.04C127.369 520.336 192.833 512.25 192.833 512.25C192.833 512.25 261.53 410.366 264.763 396.62C267.995 382.874 298.707 280.99 313.255 281.798C313.255 281.798 326.994 275.33 335.076 280.181C343.158 285.033 361.747 317.377 361.747 317.377Z" fill="#A0616A"/>
<path d="M456.306 408.749C456.306 408.749 512.88 332.74 525.003 327.889C537.126 323.037 552.482 319.803 561.372 331.123C570.262 342.444 675.328 475.055 675.328 475.055C675.328 475.055 712.505 513.059 731.094 505.781C731.094 505.781 740.792 513.867 718.162 515.485C695.533 517.102 674.52 510.633 674.52 510.633C674.52 510.633 660.78 513.059 651.082 515.485C641.384 517.91 629.261 518.719 630.069 512.25L633.302 486.375C633.302 486.375 550.057 417.644 547.632 388.534C547.632 388.534 549.249 374.788 547.632 376.405C546.016 378.022 512.072 414.409 496.716 422.495C481.36 430.581 443.375 441.902 443.375 441.902L456.306 408.749Z" fill="#A0616A"/>
<path opacity="0.1" d="M456.306 408.749C456.306 408.749 512.88 332.74 525.003 327.889C537.126 323.037 552.482 319.803 561.372 331.123C570.262 342.444 675.328 475.055 675.328 475.055C675.328 475.055 712.505 513.059 731.094 505.781C731.094 505.781 740.792 513.867 718.162 515.485C695.533 517.102 674.52 510.633 674.52 510.633C674.52 510.633 660.78 513.059 651.082 515.485C641.384 517.91 629.261 518.719 630.069 512.25L633.302 486.375C633.302 486.375 550.057 417.644 547.632 388.534C547.632 388.534 549.249 374.788 547.632 376.405C546.016 378.022 512.072 414.409 496.716 422.495C481.36 430.581 443.375 441.902 443.375 441.902L456.306 408.749Z" fill="#565656"/>
<path d="M447.416 419.261C447.416 419.261 521.77 390.96 531.468 384.491C541.167 378.022 575.919 365.084 593.7 379.639C611.48 394.194 697.957 461.308 727.053 467.777C756.148 474.246 806.256 489.609 806.256 489.609C806.256 489.609 838.584 492.035 803.832 505.781C803.832 505.781 760.997 509.824 753.723 516.293C746.449 522.762 722.203 530.848 720.587 520.336C718.971 509.824 714.121 496.078 705.231 494.461C696.341 492.844 589.659 463.734 573.495 432.198C573.495 432.198 537.126 452.414 514.496 475.863C491.867 499.313 438.525 512.25 438.525 512.25L447.416 419.261Z" fill="#A0616A"/>
<path d="M420.745 393.386C420.745 393.386 456.173 402.807 459.068 399.309C461.963 395.812 477.319 415.218 462.771 454.031C448.224 492.844 451.457 510.633 443.375 516.293C435.293 521.954 397.307 513.059 385.993 517.102C374.678 521.145 360.13 524.379 355.281 500.93C350.432 477.48 338.309 436.242 340.733 430.581C343.158 424.921 356.089 411.984 356.089 411.984L382.76 398.237L420.745 393.386Z" fill="#3F3D56"/>
<path d="M298.303 302.418C298.303 302.418 303.93 286.649 314.374 283.693C315.258 283.452 316.128 283.167 316.982 282.837C320.905 281.279 332.874 277.877 341.542 289.885C352.048 304.439 361.747 321.42 353.665 331.123C345.583 340.827 329.419 346.487 329.419 346.487L317.296 361.85C317.296 361.85 341.542 405.515 341.542 425.73C341.542 425.73 342.35 433.816 356.089 419.261C369.829 404.706 426.054 394.643 426.054 394.643C426.054 394.643 414.28 378.831 423.17 371.553C432.06 364.276 440.199 335.289 419.157 323.907L383.164 270.882L376.698 271.691C376.698 271.691 385.184 279.373 385.993 283.416C386.801 287.459 419.129 315.76 406.198 320.611C393.266 325.463 372.253 314.951 363.363 302.822C358.473 296.151 351.628 287.034 342.961 281.256C338.511 278.35 333.373 276.67 328.066 276.385C322.759 276.1 317.471 277.22 312.736 279.632L310.022 280.99C304.739 284.69 300.594 289.792 298.054 295.722L297.091 297.971L298.303 302.418Z" fill="#2F2E41"/>
<path d="M351.644 229.643C332.004 229.643 316.083 213.714 316.083 194.065C316.083 174.415 332.004 158.486 351.644 158.486C371.284 158.486 387.205 174.415 387.205 194.065C387.205 213.714 371.284 229.643 351.644 229.643Z" fill="#2F2E41"/>
<path d="M381.547 205.385C364.14 205.385 350.028 194.344 350.028 180.723C350.028 167.102 364.14 156.061 381.547 156.061C398.955 156.061 413.067 167.102 413.067 180.723C413.067 194.344 398.955 205.385 381.547 205.385Z" fill="#2F2E41"/>
<path d="M369.829 228.835C366.927 228.835 364.575 224.671 364.575 219.536C364.575 214.4 366.927 210.237 369.829 210.237C372.73 210.237 375.082 214.4 375.082 219.536C375.082 224.671 372.73 228.835 369.829 228.835Z" fill="#A0616A"/>
<path d="M360.938 137.754V202.151H379.527V137.754C379.527 136.604 379.071 135.502 378.258 134.689C377.446 133.876 376.344 133.42 375.195 133.419H365.27C364.121 133.42 363.02 133.876 362.207 134.689C361.395 135.502 360.938 136.604 360.938 137.754Z" fill="#FF6584"/>
<path d="M370.233 235.304C359.074 235.304 350.028 226.253 350.028 215.089C350.028 203.924 359.074 194.874 370.233 194.874C381.392 194.874 390.438 203.924 390.438 215.089C390.438 226.253 381.392 235.304 370.233 235.304Z" fill="#00897B"/>
<path d="M370.233 223.983C365.323 223.983 361.342 220.001 361.342 215.088C361.342 210.176 365.323 206.194 370.233 206.194C375.143 206.194 379.123 210.176 379.123 215.088C379.123 220.001 375.143 223.983 370.233 223.983Z" fill="#F2F2F2"/>
<path d="M370.233 217.514C368.894 217.514 367.808 216.428 367.808 215.088C367.808 213.749 368.894 212.663 370.233 212.663C371.572 212.663 372.657 213.749 372.657 215.088C372.657 216.428 371.572 217.514 370.233 217.514Z" fill="#FF6584"/>
<path opacity="0.1" d="M360.938 137.754V140.697H379.527V137.754C379.527 136.604 379.071 135.502 378.258 134.689C377.446 133.876 376.344 133.42 375.195 133.419H365.27C364.121 133.42 363.02 133.876 362.207 134.689C361.395 135.502 360.938 136.604 360.938 137.754Z" fill="#565656"/>
<path d="M576.846 297.28L529.259 249.67C528.435 248.845 527.456 248.191 526.379 247.744C525.302 247.298 524.148 247.068 522.982 247.068C521.817 247.068 520.662 247.298 519.585 247.744C518.509 248.191 517.53 248.845 516.706 249.67L473.897 292.499C472.233 294.165 471.297 296.424 471.297 298.779C471.297 301.134 472.233 303.393 473.897 305.059L518.359 349.543C519.945 351.13 522.072 352.057 524.313 352.138C526.554 352.22 528.742 351.45 530.439 349.984L576.372 310.28C577.295 309.482 578.044 308.502 578.572 307.402C579.1 306.301 579.395 305.103 579.44 303.883C579.484 302.663 579.277 301.447 578.831 300.311C578.384 299.175 577.709 298.143 576.846 297.28V297.28Z" fill="#2F2E41"/>
<path d="M563.392 304.843L521.77 263.2L487.422 297.566L527.427 337.592L563.392 304.843Z" fill="#F2F2F2"/>
<path d="M524.599 319.892C513.613 319.892 504.708 310.982 504.708 299.992C504.708 289.001 513.613 280.091 524.599 280.091C535.584 280.091 544.489 289.001 544.489 299.992C544.489 310.982 535.584 319.892 524.599 319.892Z" fill="#00897B"/>
<path opacity="0.1" d="M533.452 316.953C536.779 313.825 538.93 309.647 539.542 305.12C540.155 300.594 539.192 295.994 536.816 292.093C534.44 288.193 530.795 285.229 526.493 283.699C522.191 282.169 517.493 282.167 513.19 283.692C515.515 282.063 518.161 280.951 520.952 280.43C523.742 279.909 526.612 279.992 529.367 280.673C532.123 281.354 534.701 282.617 536.928 284.377C539.156 286.138 540.981 288.355 542.28 290.879C543.58 293.404 544.325 296.178 544.465 299.014C544.604 301.851 544.135 304.684 543.09 307.324C542.044 309.964 540.445 312.35 538.402 314.321C536.358 316.291 533.916 317.802 531.241 318.75C532.019 318.204 532.758 317.604 533.452 316.953V316.953Z" fill="#565656"/>
<path d="M514.82 296.037C512.448 298.267 512.322 306.294 515.944 310.151C519.566 314.007 525.563 312.233 527.935 310.003C530.307 307.773 528.156 305.932 524.534 302.076C520.912 298.219 517.192 293.807 514.82 296.037Z" fill="#F2F2F2"/>
<path d="M535.012 306.213C531.757 306.213 529.118 303.573 529.118 300.316C529.118 297.06 531.757 294.42 535.012 294.42C538.267 294.42 540.905 297.06 540.905 300.316C540.905 303.573 538.267 306.213 535.012 306.213Z" fill="#2F2E41"/>
<path d="M524.418 294.932C521.164 294.932 518.525 292.293 518.525 289.036C518.525 285.78 521.164 283.14 524.418 283.14C527.673 283.14 530.312 285.78 530.312 289.036C530.312 292.293 527.673 294.932 524.418 294.932Z" fill="#2F2E41"/>
<path d="M535.012 301.79C534.198 301.79 533.539 301.13 533.539 300.316C533.539 299.502 534.198 298.842 535.012 298.842C535.826 298.842 536.485 299.502 536.485 300.316C536.485 301.13 535.826 301.79 535.012 301.79Z" fill="#F2F2F2"/>
<path d="M535.646 297.423C535.239 297.423 534.909 297.093 534.909 296.686C534.909 296.279 535.239 295.949 535.646 295.949C536.053 295.949 536.383 296.279 536.383 296.686C536.383 297.093 536.053 297.423 535.646 297.423Z" fill="#F2F2F2"/>
<path d="M525.053 286.143C524.646 286.143 524.316 285.813 524.316 285.406C524.316 284.999 524.646 284.669 525.053 284.669C525.46 284.669 525.789 284.999 525.789 285.406C525.789 285.813 525.46 286.143 525.053 286.143Z" fill="#F2F2F2"/>
<path d="M524.418 290.51C523.605 290.51 522.945 289.85 522.945 289.036C522.945 288.222 523.605 287.562 524.418 287.562C525.232 287.562 525.892 288.222 525.892 289.036C525.892 289.85 525.232 290.51 524.418 290.51Z" fill="#F2F2F2"/>
</g>
<defs>
<clipPath id="clip0">
<rect width="919" height="560" fill="white" transform="matrix(-1 0 0 1 919 0)"/>
</clipPath>
</defs>
</svg>
